<svg width="150" height="51" viewBox="0 0 150 51" fill="none" xmlns="http://www.w3.org/2000/svg">
<rect x="0.5" y="1" width="149" height="49" rx="24.5" fill="white"/>
<path d="M41.7031 27.3828H43.2031C43.125 28.1016 42.9193 28.7448 42.5859 29.3125C42.2526 29.8802 41.7812 30.3307 41.1719 30.6641C40.5625 30.9922 39.8021 31.1562 38.8906 31.1562C38.224 31.1562 37.6172 31.0312 37.0703 30.7812C36.5286 30.5312 36.0625 30.1771 35.6719 29.7188C35.2812 29.2552 34.9792 28.7005 34.7656 28.0547C34.5573 27.4036 34.4531 26.6797 34.4531 25.8828V24.75C34.4531 23.9531 34.5573 23.2318 34.7656 22.5859C34.9792 21.9349 35.2839 21.3776 35.6797 20.9141C36.0807 20.4505 36.5625 20.0938 37.125 19.8438C37.6875 19.5938 38.3203 19.4688 39.0234 19.4688C39.8828 19.4688 40.6094 19.6302 41.2031 19.9531C41.7969 20.276 42.2578 20.724 42.5859 21.2969C42.9193 21.8646 43.125 22.5234 43.2031 23.2734H41.7031C41.6302 22.7422 41.4948 22.2865 41.2969 21.9062C41.099 21.5208 40.8177 21.224 40.4531 21.0156C40.0885 20.8073 39.612 20.7031 39.0234 20.7031C38.5182 20.7031 38.0729 20.7995 37.6875 20.9922C37.3073 21.1849 36.987 21.4583 36.7266 21.8125C36.4714 22.1667 36.2786 22.5911 36.1484 23.0859C36.0182 23.5807 35.9531 24.1302 35.9531 24.7344V25.8828C35.9531 26.4401 36.0104 26.9635 36.125 27.4531C36.2448 27.9427 36.4245 28.3724 36.6641 28.7422C36.9036 29.112 37.2083 29.4036 37.5781 29.6172C37.9479 29.8255 38.3854 29.9297 38.8906 29.9297C39.5312 29.9297 40.0417 29.8281 40.4219 29.625C40.8021 29.4219 41.0885 29.1302 41.2812 28.75C41.4792 28.3698 41.6198 27.9141 41.7031 27.3828ZM44.6562 26.8672V26.6875C44.6562 26.0781 44.7448 25.513 44.9219 24.9922C45.099 24.4661 45.3542 24.0104 45.6875 23.625C46.0208 23.2344 46.4245 22.9323 46.8984 22.7188C47.3724 22.5 47.9036 22.3906 48.4922 22.3906C49.0859 22.3906 49.6198 22.5 50.0938 22.7188C50.5729 22.9323 50.9792 23.2344 51.3125 23.625C51.651 24.0104 51.9089 24.4661 52.0859 24.9922C52.263 25.513 52.3516 26.0781 52.3516 26.6875V26.8672C52.3516 27.4766 52.263 28.0417 52.0859 28.5625C51.9089 29.0833 51.651 29.5391 51.3125 29.9297C50.9792 30.3151 50.5755 30.6172 50.1016 30.8359C49.6328 31.0495 49.1016 31.1562 48.5078 31.1562C47.9141 31.1562 47.3802 31.0495 46.9062 30.8359C46.4323 30.6172 46.026 30.3151 45.6875 29.9297C45.3542 29.5391 45.099 29.0833 44.9219 28.5625C44.7448 28.0417 44.6562 27.4766 44.6562 26.8672ZM46.1016 26.6875V26.8672C46.1016 27.2891 46.151 27.6875 46.25 28.0625C46.349 28.4323 46.4974 28.7604 46.6953 29.0469C46.8984 29.3333 47.151 29.5599 47.4531 29.7266C47.7552 29.888 48.1068 29.9688 48.5078 29.9688C48.9036 29.9688 49.25 29.888 49.5469 29.7266C49.849 29.5599 50.099 29.3333 50.2969 29.0469C50.4948 28.7604 50.6432 28.4323 50.7422 28.0625C50.8464 27.6875 50.8984 27.2891 50.8984 26.8672V26.6875C50.8984 26.2708 50.8464 25.8776 50.7422 25.5078C50.6432 25.1328 50.4922 24.8021 50.2891 24.5156C50.0911 24.224 49.8411 23.9948 49.5391 23.8281C49.2422 23.6615 48.8932 23.5781 48.4922 23.5781C48.0964 23.5781 47.7474 23.6615 47.4453 23.8281C47.1484 23.9948 46.8984 24.224 46.6953 24.5156C46.4974 24.8021 46.349 25.1328 46.25 25.5078C46.151 25.8776 46.1016 26.2708 46.1016 26.6875ZM55.6094 24.3516V31H54.1641V22.5469H55.5312L55.6094 24.3516ZM55.2656 26.4531L54.6641 26.4297C54.6693 25.8516 54.7552 25.3177 54.9219 24.8281C55.0885 24.3333 55.3229 23.9036 55.625 23.5391C55.9271 23.1745 56.2865 22.8932 56.7031 22.6953C57.125 22.4922 57.5911 22.3906 58.1016 22.3906C58.5182 22.3906 58.8932 22.4479 59.2266 22.5625C59.5599 22.6719 59.8438 22.849 60.0781 23.0938C60.3177 23.3385 60.5 23.6562 60.625 24.0469C60.75 24.4323 60.8125 24.9036 60.8125 25.4609V31H59.3594V25.4453C59.3594 25.0026 59.2943 24.6484 59.1641 24.3828C59.0339 24.112 58.8438 23.9167 58.5938 23.7969C58.3438 23.6719 58.0365 23.6094 57.6719 23.6094C57.3125 23.6094 56.9844 23.6849 56.6875 23.8359C56.3958 23.987 56.1432 24.1953 55.9297 24.4609C55.7214 24.7266 55.5573 25.0312 55.4375 25.375C55.3229 25.7135 55.2656 26.0729 55.2656 26.4531ZM66.5469 22.5469V23.6562H61.9766V22.5469H66.5469ZM63.5234 20.4922H64.9688V28.9062C64.9688 29.1927 65.013 29.4089 65.1016 29.5547C65.1901 29.7005 65.3047 29.7969 65.4453 29.8438C65.5859 29.8906 65.737 29.9141 65.8984 29.9141C66.0182 29.9141 66.1432 29.9036 66.2734 29.8828C66.4089 29.8568 66.5104 29.8359 66.5781 29.8203L66.5859 31C66.4714 31.0365 66.3203 31.0703 66.1328 31.1016C65.9505 31.138 65.7292 31.1562 65.4688 31.1562C65.1146 31.1562 64.7891 31.0859 64.4922 30.9453C64.1953 30.8047 63.9583 30.5703 63.7812 30.2422C63.6094 29.9089 63.5234 29.4609 63.5234 28.8984V20.4922ZM73.2266 29.5547V25.2031C73.2266 24.8698 73.1589 24.5807 73.0234 24.3359C72.8932 24.0859 72.6953 23.8932 72.4297 23.7578C72.1641 23.6224 71.8359 23.5547 71.4453 23.5547C71.0807 23.5547 70.7604 23.6172 70.4844 23.7422C70.2135 23.8672 70 24.0312 69.8438 24.2344C69.6927 24.4375 69.6172 24.6562 69.6172 24.8906H68.1719C68.1719 24.5885 68.25 24.2891 68.4062 23.9922C68.5625 23.6953 68.7865 23.4271 69.0781 23.1875C69.375 22.9427 69.7292 22.75 70.1406 22.6094C70.5573 22.4635 71.0208 22.3906 71.5312 22.3906C72.1458 22.3906 72.6875 22.4948 73.1562 22.7031C73.6302 22.9115 74 23.2266 74.2656 23.6484C74.5365 24.0651 74.6719 24.5885 74.6719 25.2188V29.1562C74.6719 29.4375 74.6953 29.737 74.7422 30.0547C74.7943 30.3724 74.8698 30.6458 74.9688 30.875V31H73.4609C73.388 30.8333 73.3307 30.612 73.2891 30.3359C73.2474 30.0547 73.2266 29.7943 73.2266 29.5547ZM73.4766 25.875L73.4922 26.8906H72.0312C71.6198 26.8906 71.2526 26.9245 70.9297 26.9922C70.6068 27.0547 70.3359 27.151 70.1172 27.2812C69.8984 27.4115 69.7318 27.5755 69.6172 27.7734C69.5026 27.9661 69.4453 28.1927 69.4453 28.4531C69.4453 28.7188 69.5052 28.9609 69.625 29.1797C69.7448 29.3984 69.9245 29.5729 70.1641 29.7031C70.4089 29.8281 70.7083 29.8906 71.0625 29.8906C71.5052 29.8906 71.8958 29.7969 72.2344 29.6094C72.5729 29.4219 72.8411 29.1927 73.0391 28.9219C73.2422 28.651 73.3516 28.388 73.3672 28.1328L73.9844 28.8281C73.9479 29.0469 73.849 29.2891 73.6875 29.5547C73.526 29.8203 73.3099 30.0755 73.0391 30.3203C72.7734 30.5599 72.4557 30.7604 72.0859 30.9219C71.7214 31.0781 71.3099 31.1562 70.8516 31.1562C70.2786 31.1562 69.776 31.0443 69.3438 30.8203C68.9167 30.5964 68.5833 30.2969 68.3438 29.9219C68.1094 29.5417 67.9922 29.1172 67.9922 28.6484C67.9922 28.1953 68.0807 27.7969 68.2578 27.4531C68.4349 27.1042 68.6901 26.8151 69.0234 26.5859C69.3568 26.3516 69.7578 26.1745 70.2266 26.0547C70.6953 25.9349 71.2188 25.875 71.7969 25.875H73.4766ZM80.3281 29.9688C80.6719 29.9688 80.9896 29.8984 81.2812 29.7578C81.5729 29.6172 81.8125 29.4245 82 29.1797C82.1875 28.9297 82.2943 28.6458 82.3203 28.3281H83.6953C83.6693 28.8281 83.5 29.2943 83.1875 29.7266C82.8802 30.1536 82.4766 30.5 81.9766 30.7656C81.4766 31.026 80.9271 31.1562 80.3281 31.1562C79.6927 31.1562 79.138 31.0443 78.6641 30.8203C78.1953 30.5964 77.8047 30.2891 77.4922 29.8984C77.1849 29.5078 76.9531 29.0599 76.7969 28.5547C76.6458 28.0443 76.5703 27.5052 76.5703 26.9375V26.6094C76.5703 26.0417 76.6458 25.5052 76.7969 25C76.9531 24.4896 77.1849 24.0391 77.4922 23.6484C77.8047 23.2578 78.1953 22.9505 78.6641 22.7266C79.138 22.5026 79.6927 22.3906 80.3281 22.3906C80.9896 22.3906 81.5677 22.526 82.0625 22.7969C82.5573 23.0625 82.9453 23.4271 83.2266 23.8906C83.513 24.349 83.6693 24.8698 83.6953 25.4531H82.3203C82.2943 25.1042 82.1953 24.7891 82.0234 24.5078C81.8568 24.2266 81.6276 24.0026 81.3359 23.8359C81.0495 23.6641 80.7135 23.5781 80.3281 23.5781C79.8854 23.5781 79.513 23.6667 79.2109 23.8438C78.9141 24.0156 78.6771 24.25 78.5 24.5469C78.3281 24.8385 78.2031 25.1641 78.125 25.5234C78.0521 25.8776 78.0156 26.2396 78.0156 26.6094V26.9375C78.0156 27.3073 78.0521 27.6719 78.125 28.0312C78.1979 28.3906 78.3203 28.7161 78.4922 29.0078C78.6693 29.2995 78.9062 29.5339 79.2031 29.7109C79.5052 29.8828 79.8802 29.9688 80.3281 29.9688ZM88.8594 22.5469V23.6562H84.2891V22.5469H88.8594ZM85.8359 20.4922H87.2812V28.9062C87.2812 29.1927 87.3255 29.4089 87.4141 29.5547C87.5026 29.7005 87.6172 29.7969 87.7578 29.8438C87.8984 29.8906 88.0495 29.9141 88.2109 29.9141C88.3307 29.9141 88.4557 29.9036 88.5859 29.8828C88.7214 29.8568 88.8229 29.8359 88.8906 29.8203L88.8984 31C88.7839 31.0365 88.6328 31.0703 88.4453 31.1016C88.263 31.138 88.0417 31.1562 87.7812 31.1562C87.4271 31.1562 87.1016 31.0859 86.8047 30.9453C86.5078 30.8047 86.2708 30.5703 86.0938 30.2422C85.9219 29.9089 85.8359 29.4609 85.8359 28.8984V20.4922ZM95.2188 19.625H96.6797L100.406 28.8984L104.125 19.625H105.594L100.969 31H99.8281L95.2188 19.625ZM94.7422 19.625H96.0312L96.2422 26.5625V31H94.7422V19.625ZM104.773 19.625H106.062V31H104.562V26.5625L104.773 19.625ZM115.938 29.7734V31H109.914V29.7734H115.938ZM110.219 19.625V31H108.711V19.625H110.219ZM115.141 24.5156V25.7422H109.914V24.5156H115.141ZM115.859 19.625V20.8594H109.914V19.625H115.859Z" fill="#454B46"/>
<rect x="0.5" y="1" width="149" height="49" rx="24.5" stroke="#454B46"/>
</svg>
