<svg width="24" height="24" viewBox="0 0 24 24" fill="none" xmlns="http://www.w3.org/2000/svg">
<g clip-path="url(#clip0_60_1427)">
<circle cx="12" cy="12" r="12" fill="white"/>
<path d="M14.7692 20V17.0552C14.7981 16.6923 14.7485 16.3276 14.6239 15.9852C14.4992 15.6427 14.3023 15.3305 14.0462 15.0691C16.4615 14.8028 19 13.8973 19 9.74261C18.9998 8.68022 18.5867 7.65856 17.8462 6.88911C18.1968 5.95963 18.172 4.93225 17.7769 4.02039C17.7769 4.02039 16.8692 3.75406 14.7692 5.14657C13.0062 4.67389 11.1477 4.67389 9.38462 5.14657C7.28462 3.75406 6.37692 4.02039 6.37692 4.02039C5.98183 4.93225 5.95703 5.95963 6.30769 6.88911C5.56164 7.66427 5.14809 8.69516 5.15385 9.76544C5.15385 13.8897 7.69231 14.7952 10.1077 15.092C9.85461 15.3507 9.65943 15.6592 9.53485 15.9974C9.41027 16.3357 9.35908 16.6961 9.38462 17.0552V20M9.38462 17.7172C5.53846 18.8586 5.53846 15.8149 4 15.4344L9.38462 17.7172Z" stroke="#454B46" stroke-linecap="round" stroke-linejoin="round"/>
</g>
<defs>
<clipPath id="clip0_60_1427">
<rect width="24" height="24" fill="white"/>
</clipPath>
</defs>
</svg>
