<svg width="1241" height="60" viewBox="0 0 1241 60" fill="none" xmlns="http://www.w3.org/2000/svg">
<rect width="1241" height="60" rx="5" fill="white" fill-opacity="0.39"/>
<rect x="1" y="1" width="1239" height="58" rx="4" stroke="white" stroke-opacity="0.39" stroke-width="2"/>
<path d="M46.1667 41.1667L40.933 35.9237M43.8333 28.9167C43.8333 31.5467 42.7885 34.0691 40.9288 35.9288C39.0691 37.7885 36.5467 38.8333 33.9167 38.8333C31.2866 38.8333 28.7643 37.7885 26.9045 35.9288C25.0448 34.0691 24 31.5467 24 28.9167C24 26.2866 25.0448 23.7643 26.9045 21.9045C28.7643 20.0448 31.2866 19 33.9167 19C36.5467 19 39.0691 20.0448 40.9288 21.9045C42.7885 23.7643 43.8333 26.2866 43.8333 28.9167V28.9167Z" stroke="white" stroke-width="2" stroke-linecap="round"/>
<path d="M83.6843 21.8978V33.763H82.2957V32.1458H79.0613V31.1439H82.2957V21.8978H83.6843ZM84.071 36.013V37.1732H72.9617V32.6029H74.3503V36.013H84.071ZM70.7117 29.14C73.6296 29.1224 77.532 29.1048 80.8894 28.683L80.9773 29.6849C79.5798 29.9046 78.1208 30.0453 76.6882 30.1244V33.2181H75.2996V30.1947C73.7175 30.265 72.2146 30.2738 70.905 30.265L70.7117 29.14ZM75.8445 22.5306C78.1296 22.5306 79.6941 23.6205 79.7117 25.2552C79.6941 26.9251 78.1296 27.9622 75.8445 27.9622C73.5417 27.9622 71.9773 26.9251 71.9773 25.2552C71.9773 23.6205 73.5417 22.5306 75.8445 22.5306ZM75.8445 23.5853C74.3152 23.5677 73.2781 24.2533 73.2957 25.2552C73.2781 26.2747 74.3152 26.9427 75.8445 26.9427C77.321 26.9427 78.3757 26.2747 78.3933 25.2552C78.3757 24.2533 77.321 23.5677 75.8445 23.5853ZM98.45 21.8802V28.3314H101.069V29.474H98.45V37.5072H97.0789V21.8802H98.45ZM95.5671 24.3939V25.5365H86.2683V24.3939H90.2937V22.0736H91.6648V24.3939H95.5671ZM90.9968 26.8372C93.2117 26.8372 94.8113 28.3138 94.8289 30.4232C94.8113 32.5326 93.2117 34.0091 90.9968 34.0091C88.7644 34.0091 87.1472 32.5326 87.1648 30.4232C87.1472 28.3138 88.7644 26.8372 90.9968 26.8372ZM90.9968 27.9974C89.5378 27.9974 88.4656 29.0169 88.4832 30.4232C88.4656 31.847 89.5378 32.849 90.9968 32.8314C92.4382 32.849 93.4929 31.847 93.5105 30.4232C93.4929 29.0169 92.4382 27.9974 90.9968 27.9974ZM114.552 26.6263V27.7337H103.846V22.4603H105.218V26.6263H114.552ZM116.204 29.8607V30.9857H101.895V29.8607H116.204ZM114.639 35.9779V37.1205H103.759V32.5853H105.13V35.9779H114.639ZM129.968 22.8822C129.95 26.8548 127.577 29.808 122.866 31.3548L122.268 30.2474C124.764 29.4652 126.505 28.2962 127.524 26.8197L122.427 27.224L122.18 26.0814L128.087 25.8001C128.306 25.2464 128.456 24.6576 128.526 24.0423H122.971V22.8822H129.968ZM134.204 21.8802V25.9583H136.559V27.1185H134.204V31.2494H132.833V21.8802H134.204ZM134.204 31.9876V37.5072H132.833V33.1302H124.096V31.9876H134.204ZM143.977 23.7962V24.9037H139.477V27.9974H143.257V29.1048H139.477V32.6205C141.719 32.5941 143.09 32.515 144.786 32.1986L144.909 33.3236C143.098 33.6927 141.622 33.7279 139.143 33.7455H138.159V23.7962H143.977ZM150.921 21.8802V37.5072H149.585V21.8802H150.921ZM147.721 22.2669V36.6986H146.403V28.9642H144.1V27.8216H146.403V22.2669H147.721ZM157.53 22.4603C159.868 22.4779 161.573 23.8841 161.573 25.9232C161.573 27.9622 159.868 29.3685 157.53 29.3685C155.157 29.3685 153.469 27.9622 153.469 25.9232C153.469 23.8841 155.157 22.4779 157.53 22.4603ZM157.53 23.6205C155.966 23.6205 154.805 24.5697 154.823 25.9232C154.805 27.2943 155.966 28.2435 157.53 28.2435C159.077 28.2435 160.237 27.2943 160.237 25.9232C160.237 24.5697 159.077 23.6205 157.53 23.6205ZM166.003 21.8802V29.9134H164.632V21.8802H166.003ZM166.003 30.6693V34.431H157.231V36.1888H166.565V37.2962H155.878V33.3939H164.632V31.7767H155.843V30.6693H166.003ZM179.274 23.6205V29.0169H175.038V32.4974C176.84 32.4886 178.545 32.4271 180.628 32.058L180.733 33.2005C178.501 33.6048 176.725 33.64 174.739 33.6576H173.702V27.8744H177.956V24.763H173.667V23.6205H179.274ZM186.534 21.8802V37.5072H185.216V21.8802H186.534ZM183.335 22.2669V36.681H182.034V28.6478H180.03V27.5228H182.034V22.2669H183.335ZM194.286 26.0814C194.268 28.929 196.219 31.8119 198.522 32.849L197.678 33.9388C195.903 33.0687 194.365 31.2318 193.618 28.9994C192.888 31.3636 191.35 33.3324 189.522 34.2552L188.643 33.0951C190.964 32.0228 192.897 29.0521 192.915 26.0814V23.2337H194.286V26.0814ZM201.616 21.8802V37.5423H200.227V21.8802H201.616ZM217.208 21.8802V37.5072H215.819V21.8802H217.208ZM213.604 23.5853V24.7279H211.829V32.2513C212.708 32.1898 213.578 32.1107 214.413 32.0052L214.501 33.0423C211.091 33.5697 207.329 33.6224 204.428 33.64L204.27 32.4622C204.947 32.4622 205.677 32.4622 206.432 32.4447V24.7279H204.675V23.5853H213.604ZM207.786 32.4271C208.665 32.4095 209.57 32.3744 210.475 32.3216V24.7279H207.786V32.4271ZM232.43 22.8997C232.413 26.8197 229.618 29.6322 225.118 30.9154L224.538 29.8255C228.273 28.7708 230.655 26.6966 230.954 24.0423H225.346V22.8997H232.43ZM237.317 21.8978V30.8099H235.928V27.0833H232.466V25.9232H235.928V21.8978H237.317ZM237.317 31.4779V37.2962H227.175V31.4779H237.317ZM228.51 32.5853V36.1712H235.946V32.5853H228.51ZM244.577 24.9388C244.577 26.7142 245.772 28.5072 247.776 29.2982L247.038 30.3705C245.561 29.7552 244.48 28.6126 243.927 27.224C243.346 28.7445 242.221 30.0716 240.692 30.7572L239.936 29.6849C241.993 28.7708 243.259 26.7142 243.259 24.9388V22.847H244.577V24.9388ZM253.19 21.8978V31.3372H251.872V27.1361H249.798V31.2494H248.497V22.179H249.798V25.9759H251.872V21.8978H253.19ZM253.19 32.1986V37.5072H251.837V33.3412H242.661V32.1986H253.19ZM267.569 21.8802V28.3314H270.188V29.474H267.569V37.5072H266.198V21.8802H267.569ZM264.686 24.3939V25.5365H255.387V24.3939H259.413V22.0736H260.784V24.3939H264.686ZM260.116 26.8372C262.331 26.8372 263.93 28.3138 263.948 30.4232C263.93 32.5326 262.331 34.0091 260.116 34.0091C257.884 34.0091 256.266 32.5326 256.284 30.4232C256.266 28.3138 257.884 26.8372 260.116 26.8372ZM260.116 27.9974C258.657 27.9974 257.585 29.0169 257.602 30.4232C257.585 31.847 258.657 32.849 260.116 32.8314C261.557 32.849 262.612 31.847 262.63 30.4232C262.612 29.0169 261.557 27.9974 260.116 27.9974ZM283.952 21.8802V37.5072H282.563V21.8802H283.952ZM279.329 23.5853C279.311 28.0853 277.219 32.058 271.981 34.5716L271.225 33.4466C275.453 31.4427 277.606 28.4456 277.923 24.7103H271.946V23.5853H279.329Z" fill="white"/>
</svg>
