<svg width="64" height="64" viewBox="0 0 64 64" fill="none" xmlns="http://www.w3.org/2000/svg">
<g filter="url(#filter0_dd_60_1429)">
<circle cx="32" cy="24" r="12" fill="white"/>
<path fill-rule="evenodd" clip-rule="evenodd" d="M28.2675 17C26.4629 17 25 18.4629 25 20.2675V27.8024C25 29.607 26.4629 31.0699 28.2675 31.0699H35.8024C37.607 31.0699 39.0699 29.607 39.0699 27.8024V20.2675C39.0699 18.4629 37.607 17 35.8024 17H28.2675ZM24 20.2675C24 17.9106 25.9106 16 28.2675 16H35.8024C38.1593 16 40.0699 17.9106 40.0699 20.2675V27.8024C40.0699 30.1593 38.1593 32.0699 35.8024 32.0699H28.2675C25.9106 32.0699 24 30.1593 24 27.8024V20.2675ZM32.4364 21.5154C31.9134 21.4379 31.3792 21.5272 30.9098 21.7707C30.4404 22.0143 30.0598 22.3996 29.8221 22.872C29.5844 23.3443 29.5016 23.8795 29.5856 24.4016C29.6696 24.9237 29.9161 25.406 30.29 25.7799C30.6639 26.1538 31.1462 26.4003 31.6683 26.4843C32.1903 26.5683 32.7256 26.4855 33.1979 26.2478C33.6703 26.0101 34.0556 25.6294 34.2991 25.1601C34.5427 24.6907 34.632 24.1565 34.5545 23.6335C34.4753 23.0999 34.2267 22.606 33.8453 22.2246C33.4639 21.8432 32.97 21.5945 32.4364 21.5154ZM30.4492 20.8831C31.1053 20.5427 31.852 20.4178 32.5831 20.5262C33.3289 20.6368 34.0193 20.9843 34.5524 21.5175C35.0855 22.0506 35.4331 22.741 35.5436 23.4868C35.6521 24.2179 35.5272 24.9646 35.1868 25.6207C34.8463 26.2767 34.3077 26.8087 33.6475 27.141C32.9873 27.4733 32.2391 27.589 31.5094 27.4716C30.7797 27.3541 30.1055 27.0096 29.5829 26.487C29.0603 25.9643 28.7157 25.2902 28.5983 24.5605C28.4809 23.8308 28.5966 23.0826 28.9289 22.4224C29.2612 21.7622 29.7932 21.2235 30.4492 20.8831ZM36.1792 19.3907C35.903 19.3907 35.6792 19.6146 35.6792 19.8907C35.6792 20.1669 35.903 20.3907 36.1792 20.3907H36.1878C36.464 20.3907 36.6878 20.1669 36.6878 19.8907C36.6878 19.6146 36.464 19.3907 36.1878 19.3907H36.1792Z" fill="#454B46"/>
</g>
<defs>
<filter id="filter0_dd_60_1429" x="0" y="0" width="64" height="64" filterUnits="userSpaceOnUse" color-interpolation-filters="sRGB">
<feFlood flood-opacity="0" result="BackgroundImageFix"/>
<feColorMatrix in="SourceAlpha" type="matrix" values="0 0 0 0 0 0 0 0 0 0 0 0 0 0 0 0 0 0 127 0" result="hardAlpha"/>
<feMorphology radius="4" operator="erode" in="SourceAlpha" result="effect1_dropShadow_60_1429"/>
<feOffset dy="8"/>
<feGaussianBlur stdDeviation="12"/>
<feColorMatrix type="matrix" values="0 0 0 0 0.0941176 0 0 0 0 0.152941 0 0 0 0 0.294118 0 0 0 0.08 0"/>
<feBlend mode="normal" in2="BackgroundImageFix" result="effect1_dropShadow_60_1429"/>
<feColorMatrix in="SourceAlpha" type="matrix" values="0 0 0 0 0 0 0 0 0 0 0 0 0 0 0 0 0 0 127 0" result="hardAlpha"/>
<feMorphology radius="6" operator="erode" in="SourceAlpha" result="effect2_dropShadow_60_1429"/>
<feOffset dy="6"/>
<feGaussianBlur stdDeviation="6"/>
<feColorMatrix type="matrix" values="0 0 0 0 0.0941176 0 0 0 0 0.152941 0 0 0 0 0.294118 0 0 0 0.12 0"/>
<feBlend mode="normal" in2="effect1_dropShadow_60_1429" result="effect2_dropShadow_60_1429"/>
<feBlend mode="normal" in="SourceGraphic" in2="effect2_dropShadow_60_1429" result="shape"/>
</filter>
</defs>
</svg>
